<svg preserveAspectRatio="none" width="100%" height="100%" overflow="visible" style="display: block;" viewBox="0 0 49.2275 44.6806" fill="none" xmlns="http://www.w3.org/2000/svg">
<g id="Group">
<path id="Vector" d="M38.2494 17.7948C38.2494 17.7948 24.6142 26.8849 24.6142 42.7927M18.5897 20.4832C16.7891 21.8272 14.5648 22.4778 12.3237 22.3158C10.0827 22.1539 7.97493 21.1903 6.38624 19.6015C0.877622 14.0951 1.97753 1.97798 1.97753 1.97798C1.97753 1.97798 14.0969 0.8758 19.6033 6.38442C20.6403 7.41736 21.4194 8.68008 21.8774 10.0703C22.3354 11.4604 22.4594 12.939 22.2394 14.386" stroke="#313044" stroke-width="3.7759" stroke-linecap="round" stroke-linejoin="round"/>
<path id="Vector_2" d="M31.35 24.1988C29.8995 22.6208 29.1149 20.5433 29.1602 18.4004C29.2055 16.2575 30.0772 14.215 31.5932 12.6998C36.4882 7.80475 47.26 8.78421 47.26 8.78421C47.26 8.78421 48.2372 19.556 43.3422 24.4511C42.5291 25.2656 41.5554 25.9021 40.483 26.3199C39.4106 26.7377 38.263 26.9278 37.1132 26.8781M10.979 10.9772C10.979 10.9772 24.6142 22.3399 24.6142 42.7927" stroke="#313044" stroke-width="3.7759" stroke-linecap="round" stroke-linejoin="round"/>
</g>
</svg>
